<svg xmlns="http://www.w3.org/2000/svg" viewBox="0 0 32 32" fill="none">
  <defs>
    <linearGradient id="g" x1="0" y1="0" x2="32" y2="32" gradientUnits="userSpaceOnUse">
      <stop offset="0%" stop-color="#7c3aed"/>
      <stop offset="100%" stop-color="#db2777"/>
    </linearGradient>
  </defs>
  <rect width="32" height="32" rx="8" fill="url(#g)"/>
  <!-- brain outline simplified -->
  <path d="M16 7c-1.5 0-2.8.6-3.7 1.5C11.5 8.2 10.8 8 10 8c-2.2 0-4 1.8-4 4 0 .8.2 1.5.6 2.1C6.2 14.7 6 15.3 6 16c0 1 .4 1.9 1 2.6C6.4 19.2 6 20 6 21c0 1.7 1.1 3.1 2.7 3.6.6.9 1.6 1.4 2.8 1.4.6 0 1.2-.2 1.7-.4.8.9 2 1.4 3.3 1.4h.5c1.2 0 2.3-.5 3-.4.5.2 1 .4 1.5.4 1.2 0 2.2-.5 2.8-1.4C25 25.1 26 23.7 26 22c0-.9-.4-1.8-1-2.4.6-.7 1-1.6 1-2.6 0-.7-.2-1.3-.5-1.9.4-.6.5-1.3.5-2.1 0-2.2-1.8-4-4-4-.7 0-1.4.2-2 .5C19.2 7.7 17.8 7 16 7z" fill="rgba(255,255,255,0.25)"/>
  <text x="16" y="21" font-family="system-ui,sans-serif" font-size="12" font-weight="800" fill="white" text-anchor="middle" letter-spacing="-0.5">AI</text>
</svg>
